<svg width="323" height="50" viewBox="0 0 323 50" fill="none" xmlns="http://www.w3.org/2000/svg">
<path d="M6.21875 49V19.6562H0.875V15.1875H6.21875V11.7188C6.21875 8.09375 7.1875 5.29167 9.125 3.3125C11.0625 1.33333 13.8021 0.34375 17.3438 0.34375C18.6771 0.34375 20 0.520833 21.3125 0.875L21 5.5625C20.0208 5.375 18.9792 5.28125 17.875 5.28125C16 5.28125 14.5521 5.83333 13.5312 6.9375C12.5104 8.02083 12 9.58333 12 11.625V15.1875H19.2188V19.6562H12V49H6.21875ZM46.5 45.6562C44.25 48.3021 40.9479 49.625 36.5938 49.625C32.9896 49.625 30.2396 48.5833 28.3438 46.5C26.4688 44.3958 25.5208 41.2917 25.5 37.1875V15.1875H31.2812V37.0312C31.2812 42.1562 33.3646 44.7188 37.5312 44.7188C41.9479 44.7188 44.8854 43.0729 46.3438 39.7812V15.1875H52.125V49H46.625L46.5 45.6562ZM68.7812 7V15.1875H75.0938V19.6562H68.7812V40.625C68.7812 41.9792 69.0625 43 69.625 43.6875C70.1875 44.3542 71.1458 44.6875 72.5 44.6875C73.1667 44.6875 74.0833 44.5625 75.25 44.3125V49C73.7292 49.4167 72.25 49.625 70.8125 49.625C68.2292 49.625 66.2812 48.8438 64.9688 47.2812C63.6562 45.7188 63 43.5 63 40.625V19.6562H56.8438V15.1875H63V7H68.7812ZM102.75 45.6562C100.5 48.3021 97.1979 49.625 92.8438 49.625C89.2396 49.625 86.4896 48.5833 84.5938 46.5C82.7188 44.3958 81.7708 41.2917 81.75 37.1875V15.1875H87.5312V37.0312C87.5312 42.1562 89.6146 44.7188 93.7812 44.7188C98.1979 44.7188 101.135 43.0729 102.594 39.7812V15.1875H108.375V49H102.875L102.75 45.6562ZM133.531 20.375C132.656 20.2292 131.708 20.1562 130.688 20.1562C126.896 20.1562 124.323 21.7708 122.969 25V49H117.188V15.1875H122.812L122.906 19.0938C124.802 16.0729 127.49 14.5625 130.969 14.5625C132.094 14.5625 132.948 14.7083 133.531 15V20.375ZM152.281 49.625C147.698 49.625 143.969 48.125 141.094 45.125C138.219 42.1042 136.781 38.0729 136.781 33.0312V31.9688C136.781 28.6146 137.417 25.625 138.688 23C139.979 20.3542 141.771 18.2917 144.062 16.8125C146.375 15.3125 148.875 14.5625 151.562 14.5625C155.958 14.5625 159.375 16.0104 161.812 18.9062C164.25 21.8021 165.469 25.9479 165.469 31.3438V33.75H142.562C142.646 37.0833 143.615 39.7812 145.469 41.8438C147.344 43.8854 149.719 44.9062 152.594 44.9062C154.635 44.9062 156.365 44.4896 157.781 43.6562C159.198 42.8229 160.438 41.7188 161.5 40.3438L165.031 43.0938C162.198 47.4479 157.948 49.625 152.281 49.625ZM151.562 19.3125C149.229 19.3125 147.271 20.1667 145.688 21.875C144.104 23.5625 143.125 25.9375 142.75 29H159.688V28.5625C159.521 25.625 158.729 23.3542 157.312 21.75C155.896 20.125 153.979 19.3125 151.562 19.3125ZM179.094 31.1875V49H173.094V3.5H189.875C194.854 3.5 198.75 4.77083 201.562 7.3125C204.396 9.85417 205.812 13.2188 205.812 17.4062C205.812 21.8229 204.427 25.2292 201.656 27.625C198.906 30 194.958 31.1875 189.812 31.1875H179.094ZM179.094 26.2812H189.875C193.083 26.2812 195.542 25.5312 197.25 24.0312C198.958 22.5104 199.812 20.3229 199.812 17.4688C199.812 14.7604 198.958 12.5938 197.25 10.9688C195.542 9.34375 193.198 8.5 190.219 8.4375H179.094V26.2812ZM234.281 37.125H215.219L210.938 49H204.75L222.125 3.5H227.375L244.781 49H238.625L234.281 37.125ZM217.031 32.1875H232.5L224.75 10.9062L217.031 32.1875ZM284 34.5625C283.438 39.375 281.656 43.0938 278.656 45.7188C275.677 48.3229 271.708 49.625 266.75 49.625C261.375 49.625 257.062 47.6979 253.812 43.8438C250.583 39.9896 248.969 34.8333 248.969 28.375V24C248.969 19.7708 249.719 16.0521 251.219 12.8438C252.74 9.63542 254.885 7.17708 257.656 5.46875C260.427 3.73958 263.635 2.875 267.281 2.875C272.115 2.875 275.99 4.22917 278.906 6.9375C281.823 9.625 283.521 13.3542 284 18.125H277.969C277.448 14.5 276.312 11.875 274.562 10.25C272.833 8.625 270.406 7.8125 267.281 7.8125C263.448 7.8125 260.438 9.22917 258.25 12.0625C256.083 14.8958 255 18.9271 255 24.1562V28.5625C255 33.5 256.031 37.4271 258.094 40.3438C260.156 43.2604 263.042 44.7188 266.75 44.7188C270.083 44.7188 272.635 43.9688 274.406 42.4688C276.198 40.9479 277.385 38.3125 277.969 34.5625H284ZM305.625 28.7188C300.479 27.2396 296.729 25.4271 294.375 23.2812C292.042 21.1146 290.875 18.4479 290.875 15.2812C290.875 11.6979 292.302 8.73958 295.156 6.40625C298.031 4.05208 301.76 2.875 306.344 2.875C309.469 2.875 312.25 3.47917 314.688 4.6875C317.146 5.89583 319.042 7.5625 320.375 9.6875C321.729 11.8125 322.406 14.1354 322.406 16.6562H316.375C316.375 13.9062 315.5 11.75 313.75 10.1875C312 8.60417 309.531 7.8125 306.344 7.8125C303.385 7.8125 301.073 8.46875 299.406 9.78125C297.76 11.0729 296.938 12.875 296.938 15.1875C296.938 17.0417 297.719 18.6146 299.281 19.9062C300.865 21.1771 303.542 22.3438 307.312 23.4062C311.104 24.4688 314.062 25.6458 316.188 26.9375C318.333 28.2083 319.917 29.6979 320.938 31.4062C321.979 33.1146 322.5 35.125 322.5 37.4375C322.5 41.125 321.062 44.0833 318.188 46.3125C315.312 48.5208 311.469 49.625 306.656 49.625C303.531 49.625 300.615 49.0312 297.906 47.8438C295.198 46.6354 293.104 44.9896 291.625 42.9062C290.167 40.8229 289.438 38.4583 289.438 35.8125H295.469C295.469 38.5625 296.479 40.7396 298.5 42.3438C300.542 43.9271 303.26 44.7188 306.656 44.7188C309.823 44.7188 312.25 44.0729 313.938 42.7812C315.625 41.4896 316.469 39.7292 316.469 37.5C316.469 35.2708 315.688 33.5521 314.125 32.3438C312.562 31.1146 309.729 29.9062 305.625 28.7188Z" fill="white"/>
</svg>
